<mxfile host="app.diagrams.net" agent="Mozilla/5.0 (Windows NT 10.0; Win64; x64) AppleWebKit/537.36 (KHTML, like Gecko) Chrome/129.0.0.0 Safari/537.36" version="24.7.14">
  <diagram name="Page-1" id="LsuLLnDV018Abu5yVhkC">
    <mxGraphModel dx="2163" dy="711" grid="1" gridSize="10" guides="1" tooltips="1" connect="1" arrows="1" fold="1" page="1" pageScale="1" pageWidth="850" pageHeight="1100" math="0" shadow="0">
      <root>
        <mxCell id="0" />
        <mxCell id="1" parent="0" />
        <mxCell id="hdLKpY0KP9O7RX7g1JGo-1" value="" style="rounded=0;whiteSpace=wrap;html=1;" vertex="1" parent="1">
          <mxGeometry x="50" y="40" width="750" height="410" as="geometry" />
        </mxCell>
        <mxCell id="hdLKpY0KP9O7RX7g1JGo-2" value="Header" style="rounded=0;whiteSpace=wrap;html=1;fillColor=#e1d5e7;strokeColor=#9673a6;" vertex="1" parent="1">
          <mxGeometry x="60" y="50" width="730" height="30" as="geometry" />
        </mxCell>
        <mxCell id="hdLKpY0KP9O7RX7g1JGo-3" value="" style="rounded=0;whiteSpace=wrap;html=1;fillColor=#d5e8d4;strokeColor=#82b366;" vertex="1" parent="1">
          <mxGeometry x="60" y="140" width="730" height="250" as="geometry" />
        </mxCell>
        <mxCell id="hdLKpY0KP9O7RX7g1JGo-4" value="Home page" style="text;html=1;align=center;verticalAlign=middle;whiteSpace=wrap;rounded=0;" vertex="1" parent="1">
          <mxGeometry x="-110" y="190" width="150" height="30" as="geometry" />
        </mxCell>
        <mxCell id="hdLKpY0KP9O7RX7g1JGo-5" value="Hero section" style="rounded=0;whiteSpace=wrap;html=1;" vertex="1" parent="1">
          <mxGeometry x="70" y="150" width="710" height="70" as="geometry" />
        </mxCell>
        <mxCell id="hdLKpY0KP9O7RX7g1JGo-6" value="Categories" style="rounded=0;whiteSpace=wrap;html=1;" vertex="1" parent="1">
          <mxGeometry x="60" y="90" width="730" height="40" as="geometry" />
        </mxCell>
        <mxCell id="hdLKpY0KP9O7RX7g1JGo-7" value="" style="rounded=0;whiteSpace=wrap;html=1;fillColor=#dae8fc;strokeColor=#6c8ebf;" vertex="1" parent="1">
          <mxGeometry x="70" y="230" width="710" height="150" as="geometry" />
        </mxCell>
        <mxCell id="hdLKpY0KP9O7RX7g1JGo-8" value="" style="rounded=0;whiteSpace=wrap;html=1;" vertex="1" parent="1">
          <mxGeometry x="80" y="280" width="120" height="80" as="geometry" />
        </mxCell>
        <mxCell id="hdLKpY0KP9O7RX7g1JGo-9" value="" style="rounded=0;whiteSpace=wrap;html=1;" vertex="1" parent="1">
          <mxGeometry x="230" y="280" width="120" height="80" as="geometry" />
        </mxCell>
        <mxCell id="hdLKpY0KP9O7RX7g1JGo-10" value="" style="rounded=0;whiteSpace=wrap;html=1;" vertex="1" parent="1">
          <mxGeometry x="510" y="280" width="120" height="80" as="geometry" />
        </mxCell>
        <mxCell id="hdLKpY0KP9O7RX7g1JGo-11" value="" style="rounded=0;whiteSpace=wrap;html=1;" vertex="1" parent="1">
          <mxGeometry x="650" y="280" width="120" height="80" as="geometry" />
        </mxCell>
        <mxCell id="hdLKpY0KP9O7RX7g1JGo-12" value="" style="rounded=0;whiteSpace=wrap;html=1;" vertex="1" parent="1">
          <mxGeometry x="370" y="280" width="120" height="80" as="geometry" />
        </mxCell>
        <mxCell id="hdLKpY0KP9O7RX7g1JGo-13" value="All products" style="text;html=1;align=center;verticalAlign=middle;whiteSpace=wrap;rounded=0;" vertex="1" parent="1">
          <mxGeometry x="395" y="240" width="60" height="30" as="geometry" />
        </mxCell>
        <mxCell id="hdLKpY0KP9O7RX7g1JGo-15" value="" style="shape=flexArrow;endArrow=classic;html=1;rounded=0;" edge="1" parent="1" target="hdLKpY0KP9O7RX7g1JGo-3">
          <mxGeometry width="50" height="50" relative="1" as="geometry">
            <mxPoint x="-40" y="190" as="sourcePoint" />
            <mxPoint x="30" y="160" as="targetPoint" />
            <Array as="points">
              <mxPoint x="-10" y="180" />
            </Array>
          </mxGeometry>
        </mxCell>
        <mxCell id="hdLKpY0KP9O7RX7g1JGo-30" value="Category page" style="text;html=1;align=center;verticalAlign=middle;resizable=0;points=[];autosize=1;strokeColor=none;fillColor=none;" vertex="1" parent="1">
          <mxGeometry x="-195" y="590" width="100" height="30" as="geometry" />
        </mxCell>
        <mxCell id="hdLKpY0KP9O7RX7g1JGo-31" value="" style="whiteSpace=wrap;html=1;" vertex="1" parent="1">
          <mxGeometry x="50" y="480" width="750" height="440" as="geometry" />
        </mxCell>
        <mxCell id="hdLKpY0KP9O7RX7g1JGo-33" value="Header" style="whiteSpace=wrap;html=1;fillColor=#e1d5e7;strokeColor=#9673a6;" vertex="1" parent="1">
          <mxGeometry x="60" y="490" width="730" height="40" as="geometry" />
        </mxCell>
        <mxCell id="hdLKpY0KP9O7RX7g1JGo-34" value="Categories" style="whiteSpace=wrap;html=1;" vertex="1" parent="1">
          <mxGeometry x="60" y="540" width="730" height="40" as="geometry" />
        </mxCell>
        <mxCell id="hdLKpY0KP9O7RX7g1JGo-35" value="" style="whiteSpace=wrap;html=1;fillColor=#d5e8d4;strokeColor=#82b366;" vertex="1" parent="1">
          <mxGeometry x="60" y="590" width="730" height="270" as="geometry" />
        </mxCell>
        <mxCell id="hdLKpY0KP9O7RX7g1JGo-36" value="" style="shape=flexArrow;endArrow=classic;html=1;rounded=0;entryX=0;entryY=0.067;entryDx=0;entryDy=0;entryPerimeter=0;" edge="1" parent="1" target="hdLKpY0KP9O7RX7g1JGo-35">
          <mxGeometry width="50" height="50" relative="1" as="geometry">
            <mxPoint x="-70" y="610" as="sourcePoint" />
            <mxPoint x="-10" y="590" as="targetPoint" />
          </mxGeometry>
        </mxCell>
        <mxCell id="hdLKpY0KP9O7RX7g1JGo-37" value="Filters" style="rounded=0;whiteSpace=wrap;html=1;" vertex="1" parent="1">
          <mxGeometry x="70" y="600" width="120" height="250" as="geometry" />
        </mxCell>
        <mxCell id="hdLKpY0KP9O7RX7g1JGo-38" value="&lt;div&gt;Footer&lt;/div&gt;" style="whiteSpace=wrap;html=1;fillColor=#e1d5e7;strokeColor=#9673a6;" vertex="1" parent="1">
          <mxGeometry x="60" y="400" width="730" height="40" as="geometry" />
        </mxCell>
        <mxCell id="hdLKpY0KP9O7RX7g1JGo-39" value="Footer" style="whiteSpace=wrap;html=1;fillColor=#e1d5e7;strokeColor=#9673a6;" vertex="1" parent="1">
          <mxGeometry x="60" y="870" width="730" height="40" as="geometry" />
        </mxCell>
        <mxCell id="hdLKpY0KP9O7RX7g1JGo-40" value="" style="whiteSpace=wrap;html=1;fillColor=#dae8fc;strokeColor=#6c8ebf;" vertex="1" parent="1">
          <mxGeometry x="200" y="600" width="580" height="250" as="geometry" />
        </mxCell>
        <mxCell id="hdLKpY0KP9O7RX7g1JGo-41" value="products" style="text;html=1;align=center;verticalAlign=middle;resizable=0;points=[];autosize=1;strokeColor=none;fillColor=none;" vertex="1" parent="1">
          <mxGeometry x="425" y="605" width="70" height="30" as="geometry" />
        </mxCell>
        <mxCell id="hdLKpY0KP9O7RX7g1JGo-42" value="" style="rounded=0;whiteSpace=wrap;html=1;" vertex="1" parent="1">
          <mxGeometry x="220" y="650" width="120" height="80" as="geometry" />
        </mxCell>
        <mxCell id="hdLKpY0KP9O7RX7g1JGo-43" value="" style="rounded=0;whiteSpace=wrap;html=1;" vertex="1" parent="1">
          <mxGeometry x="360" y="650" width="120" height="80" as="geometry" />
        </mxCell>
        <mxCell id="hdLKpY0KP9O7RX7g1JGo-44" value="" style="rounded=0;whiteSpace=wrap;html=1;" vertex="1" parent="1">
          <mxGeometry x="640" y="650" width="120" height="80" as="geometry" />
        </mxCell>
        <mxCell id="hdLKpY0KP9O7RX7g1JGo-45" value="" style="rounded=0;whiteSpace=wrap;html=1;" vertex="1" parent="1">
          <mxGeometry x="500" y="650" width="120" height="80" as="geometry" />
        </mxCell>
        <mxCell id="hdLKpY0KP9O7RX7g1JGo-49" value="" style="rounded=0;whiteSpace=wrap;html=1;" vertex="1" parent="1">
          <mxGeometry x="220" y="750" width="120" height="80" as="geometry" />
        </mxCell>
        <mxCell id="hdLKpY0KP9O7RX7g1JGo-50" value="" style="rounded=0;whiteSpace=wrap;html=1;" vertex="1" parent="1">
          <mxGeometry x="360" y="750" width="120" height="80" as="geometry" />
        </mxCell>
        <mxCell id="hdLKpY0KP9O7RX7g1JGo-51" value="" style="rounded=0;whiteSpace=wrap;html=1;" vertex="1" parent="1">
          <mxGeometry x="500" y="750" width="120" height="80" as="geometry" />
        </mxCell>
        <mxCell id="hdLKpY0KP9O7RX7g1JGo-52" value="" style="rounded=0;whiteSpace=wrap;html=1;" vertex="1" parent="1">
          <mxGeometry x="640" y="750" width="120" height="80" as="geometry" />
        </mxCell>
        <mxCell id="hdLKpY0KP9O7RX7g1JGo-53" value="PRoduct Page" style="text;html=1;align=center;verticalAlign=middle;resizable=0;points=[];autosize=1;strokeColor=none;fillColor=none;" vertex="1" parent="1">
          <mxGeometry x="1680" y="290" width="100" height="30" as="geometry" />
        </mxCell>
        <mxCell id="hdLKpY0KP9O7RX7g1JGo-54" value="" style="whiteSpace=wrap;html=1;" vertex="1" parent="1">
          <mxGeometry x="880" y="40" width="750" height="410" as="geometry" />
        </mxCell>
        <mxCell id="hdLKpY0KP9O7RX7g1JGo-55" value="Header" style="rounded=0;whiteSpace=wrap;html=1;fillColor=#e1d5e7;strokeColor=#9673a6;" vertex="1" parent="1">
          <mxGeometry x="890" y="50" width="730" height="30" as="geometry" />
        </mxCell>
        <mxCell id="hdLKpY0KP9O7RX7g1JGo-56" value="Categories" style="rounded=0;whiteSpace=wrap;html=1;" vertex="1" parent="1">
          <mxGeometry x="890" y="90" width="730" height="40" as="geometry" />
        </mxCell>
        <mxCell id="hdLKpY0KP9O7RX7g1JGo-57" value="" style="rounded=0;whiteSpace=wrap;html=1;fillColor=#d5e8d4;strokeColor=#82b366;" vertex="1" parent="1">
          <mxGeometry x="890" y="140" width="730" height="250" as="geometry" />
        </mxCell>
        <mxCell id="hdLKpY0KP9O7RX7g1JGo-58" value="&lt;div&gt;Footer&lt;/div&gt;" style="whiteSpace=wrap;html=1;fillColor=#e1d5e7;strokeColor=#9673a6;" vertex="1" parent="1">
          <mxGeometry x="890" y="400" width="730" height="40" as="geometry" />
        </mxCell>
        <mxCell id="hdLKpY0KP9O7RX7g1JGo-60" value="Product details" style="text;html=1;align=center;verticalAlign=middle;whiteSpace=wrap;rounded=0;" vertex="1" parent="1">
          <mxGeometry x="1200" y="140" width="135" height="30" as="geometry" />
        </mxCell>
        <mxCell id="hdLKpY0KP9O7RX7g1JGo-61" value="" style="rounded=0;whiteSpace=wrap;html=1;fillColor=#dae8fc;strokeColor=#6c8ebf;" vertex="1" parent="1">
          <mxGeometry x="900" y="170" width="710" height="210" as="geometry" />
        </mxCell>
        <mxCell id="hdLKpY0KP9O7RX7g1JGo-62" value="" style="shape=flexArrow;endArrow=classic;html=1;rounded=0;exitX=0.69;exitY=-0.033;exitDx=0;exitDy=0;exitPerimeter=0;entryX=1.003;entryY=0.444;entryDx=0;entryDy=0;entryPerimeter=0;" edge="1" parent="1" source="hdLKpY0KP9O7RX7g1JGo-53" target="hdLKpY0KP9O7RX7g1JGo-57">
          <mxGeometry width="50" height="50" relative="1" as="geometry">
            <mxPoint x="1700" y="270" as="sourcePoint" />
            <mxPoint x="1750" y="220" as="targetPoint" />
            <Array as="points">
              <mxPoint x="1710" y="250" />
            </Array>
          </mxGeometry>
        </mxCell>
        <mxCell id="hdLKpY0KP9O7RX7g1JGo-63" value="product image" style="rounded=0;whiteSpace=wrap;html=1;" vertex="1" parent="1">
          <mxGeometry x="920" y="190" width="290" height="120" as="geometry" />
        </mxCell>
        <mxCell id="hdLKpY0KP9O7RX7g1JGo-64" value="product description&amp;nbsp;" style="rounded=0;whiteSpace=wrap;html=1;" vertex="1" parent="1">
          <mxGeometry x="1230" y="190" width="360" height="120" as="geometry" />
        </mxCell>
        <mxCell id="hdLKpY0KP9O7RX7g1JGo-65" value="&lt;div&gt;&lt;br&gt;&lt;/div&gt;&lt;div&gt;product reviews&lt;/div&gt;" style="rounded=0;whiteSpace=wrap;html=1;" vertex="1" parent="1">
          <mxGeometry x="920" y="330" width="670" height="40" as="geometry" />
        </mxCell>
        <mxCell id="hdLKpY0KP9O7RX7g1JGo-67" value="" style="whiteSpace=wrap;html=1;" vertex="1" parent="1">
          <mxGeometry x="880" y="480" width="750" height="410" as="geometry" />
        </mxCell>
        <mxCell id="hdLKpY0KP9O7RX7g1JGo-68" value="Header" style="rounded=0;whiteSpace=wrap;html=1;fillColor=#e1d5e7;strokeColor=#9673a6;" vertex="1" parent="1">
          <mxGeometry x="890" y="490" width="730" height="40" as="geometry" />
        </mxCell>
        <mxCell id="hdLKpY0KP9O7RX7g1JGo-69" value="" style="whiteSpace=wrap;html=1;fillColor=#d5e8d4;strokeColor=#82b366;" vertex="1" parent="1">
          <mxGeometry x="890" y="545" width="730" height="335" as="geometry" />
        </mxCell>
        <mxCell id="hdLKpY0KP9O7RX7g1JGo-70" value="Cart" style="text;html=1;align=center;verticalAlign=middle;whiteSpace=wrap;rounded=0;" vertex="1" parent="1">
          <mxGeometry x="1195" y="545" width="120" height="30" as="geometry" />
        </mxCell>
        <mxCell id="hdLKpY0KP9O7RX7g1JGo-71" value="ordered Product" style="rounded=0;whiteSpace=wrap;html=1;fillColor=#dae8fc;strokeColor=#6c8ebf;" vertex="1" parent="1">
          <mxGeometry x="910" y="580" width="490" height="50" as="geometry" />
        </mxCell>
        <mxCell id="hdLKpY0KP9O7RX7g1JGo-72" value="sub total" style="rounded=0;whiteSpace=wrap;html=1;fillColor=#dae8fc;strokeColor=#6c8ebf;" vertex="1" parent="1">
          <mxGeometry x="1450" y="580" width="150" height="220" as="geometry" />
        </mxCell>
        <mxCell id="hdLKpY0KP9O7RX7g1JGo-73" value="ordered Product" style="rounded=0;whiteSpace=wrap;html=1;fillColor=#dae8fc;strokeColor=#6c8ebf;" vertex="1" parent="1">
          <mxGeometry x="910" y="650" width="490" height="50" as="geometry" />
        </mxCell>
        <mxCell id="hdLKpY0KP9O7RX7g1JGo-74" value="ordered Product" style="rounded=0;whiteSpace=wrap;html=1;fillColor=#dae8fc;strokeColor=#6c8ebf;" vertex="1" parent="1">
          <mxGeometry x="910" y="720" width="490" height="50" as="geometry" />
        </mxCell>
        <mxCell id="hdLKpY0KP9O7RX7g1JGo-75" value="copyright footer" style="rounded=0;whiteSpace=wrap;html=1;fillColor=#e1d5e7;strokeColor=#9673a6;" vertex="1" parent="1">
          <mxGeometry x="910" y="840" width="690" height="30" as="geometry" />
        </mxCell>
        <mxCell id="hdLKpY0KP9O7RX7g1JGo-76" value="place order button" style="rounded=1;whiteSpace=wrap;html=1;" vertex="1" parent="1">
          <mxGeometry x="1230" y="780" width="170" height="40" as="geometry" />
        </mxCell>
      </root>
    </mxGraphModel>
  </diagram>
</mxfile>
